REM MD5 6e9efbd6dd35825715e530d0b8e08cd9
FILE "Kisha de Go! (Japan).bin" BINARY
  TRACK 01 MODE2/2352
    INDEX 01 00:00:00
  TRACK 02 AUDIO
    INDEX 00 33:22:39
    INDEX 01 33:24:39
  TRACK 03 AUDIO
    INDEX 00 33:47:64
    INDEX 01 33:49:64
  TRACK 04 AUDIO
    INDEX 00 35:17:54
    INDEX 01 35:19:54
REM LEADOUT 37:05:24
